<svg id="svg" version="1.1" xmlns="http://www.w3.org/2000/svg" xmlns:xlink="http://www.w3.org/1999/xlink" width="50" height="50" viewBox="0, 0, 400,400"><g id="svgg"><path id="path0" d="M44.159 33.648 C 31.489 35.748,20.938 45.616,17.485 58.594 L 16.602 61.914 16.602 200.000 L 16.602 338.086 17.485 341.406 C 20.703 353.500,29.264 362.229,41.345 365.734 L 44.336 366.602 200.000 366.602 L 355.664 366.602 358.655 365.734 C 370.736 362.229,379.297 353.500,382.515 341.406 L 383.398 338.086 383.398 200.000 L 383.398 61.914 382.515 58.594 C 379.013 45.431,368.480 35.703,355.469 33.616 C 352.231 33.097,47.296 33.128,44.159 33.648 M108.269 109.205 C 130.899 122.216,149.550 132.996,149.717 133.160 C 149.977 133.415,67.346 181.250,66.646 181.250 C 66.507 181.250,66.439 177.013,66.497 171.835 L 66.602 162.420 91.016 148.172 C 104.443 140.335,115.657 133.794,115.934 133.636 C 116.250 133.456,107.119 127.907,91.422 118.738 L 66.406 104.126 66.406 94.837 C 66.406 89.458,66.557 85.547,66.765 85.547 C 66.962 85.547,85.639 96.193,108.269 109.205 M233.398 175.000 L 233.398 183.398 191.699 183.498 L 150.000 183.597 150.000 175.000 L 150.000 166.403 191.699 166.502 L 233.398 166.602 233.398 175.000 " stroke="none" fill="#334b5b" fill-rule="evenodd"></path><path id="path1" d="M66.797 94.829 L 66.797 104.174 91.584 118.591 C 105.218 126.520,116.328 133.162,116.275 133.350 C 116.222 133.537,105.112 140.148,91.585 148.041 L 66.992 162.390 66.887 171.625 C 66.830 176.704,66.880 180.859,67.000 180.859 C 67.698 180.859,149.589 133.417,149.333 133.161 C 149.161 132.989,131.092 122.540,109.178 109.941 C 87.265 97.342,68.765 86.685,68.066 86.258 L 66.797 85.483 66.797 94.829 M150.000 175.000 L 150.000 183.203 191.602 183.203 L 233.203 183.203 233.203 175.000 L 233.203 166.797 191.602 166.797 L 150.000 166.797 150.000 175.000 " stroke="none" fill="#ebf3f3" fill-rule="evenodd"></path><path id="path2" d="M66.575 94.922 C 66.575 100.186,66.630 102.339,66.698 99.707 C 66.766 97.075,66.766 92.769,66.698 90.137 C 66.630 87.505,66.575 89.658,66.575 94.922 M66.667 162.370 C 66.305 162.731,66.337 181.250,66.699 181.250 C 66.860 181.250,66.992 176.943,66.992 171.680 C 66.992 166.416,66.978 162.109,66.960 162.109 C 66.942 162.109,66.810 162.227,66.667 162.370 M191.504 166.698 L 233.203 166.800 233.203 175.000 L 233.203 183.200 191.602 183.302 L 150.000 183.404 191.699 183.401 L 233.398 183.398 233.398 175.000 L 233.398 166.602 191.602 166.599 L 149.805 166.596 191.504 166.698 " stroke="none" fill="#738393" fill-rule="evenodd"></path></g></svg>